<?xml version="1.0" standalone="no"?>
<!DOCTYPE svg PUBLIC "-//W3C//DTD SVG 20010904//EN"
 "http://www.w3.org/TR/2001/REC-SVG-20010904/DTD/svg10.dtd">
<svg version="1.0" xmlns="http://www.w3.org/2000/svg"
 width="329.000000pt" height="92.000000pt" viewBox="0 0 329.000000 92.000000"
 preserveAspectRatio="xMidYMid meet">

<g transform="translate(0.000000,92.000000) scale(0.100000,-0.100000)"
fill="#000000" stroke="none">
<path d="M1395 908 c-27 -6 -59 -9 -70 -9 -11 1 -105 4 -208 6 -145 4 -196 2
-221 -9 -25 -10 -37 -11 -52 -2 -21 12 -563 22 -621 11 -45 -8 -91 -50 -102
-93 -6 -20 -27 -131 -46 -247 -20 -116 -45 -259 -56 -318 -23 -124 -18 -155
32 -203 l30 -29 322 0 c311 0 324 1 365 22 l42 21 48 -26 c65 -37 182 -38 260
-3 l53 24 50 -24 c55 -25 67 -26 314 -16 77 3 151 6 165 5 14 0 306 -2 650 -4
560 -4 631 -2 678 12 66 21 135 81 169 147 30 60 54 196 44 252 -5 30 -2 52
13 85 12 28 21 76 24 128 6 101 -12 155 -68 206 -74 67 -67 66 -821 65 l-677
-1 -38 -22 -39 -22 -50 22 c-62 27 -125 35 -190 22z m130 -79 c52 -15 102 -68
113 -122 l8 -42 23 68 c32 95 35 97 147 97 76 0 97 -3 112 -17 16 -17 18 -17
35 0 16 16 30 18 95 13 42 -3 85 -5 95 -5 9 1 53 1 97 1 44 0 88 0 98 0 382 6
697 7 730 3 57 -8 108 -53 123 -108 14 -52 -2 -154 -33 -208 -18 -32 -19 -41
-8 -74 22 -67 -12 -213 -63 -272 -61 -70 -76 -73 -402 -73 -159 0 -295 4 -301
8 -6 4 -16 16 -22 27 -6 11 -12 15 -12 8 0 -6 -7 -19 -15 -27 -14 -13 -57 -15
-306 -15 l-289 0 -16 25 c-10 14 -14 36 -12 54 7 44 -18 38 -32 -7 -21 -65
-34 -73 -115 -73 -39 0 -76 5 -82 11 -8 8 -24 7 -59 -5 -93 -31 -200 -9 -239
50 l-16 25 -39 -35 c-42 -38 -92 -56 -157 -56 -56 0 -91 15 -134 56 l-35 35
-20 -22 c-10 -12 -37 -30 -59 -40 -36 -17 -70 -19 -331 -19 -277 0 -292 1
-309 20 -20 22 -21 7 20 235 14 77 36 208 51 290 14 83 32 160 40 172 14 23
15 23 303 23 280 0 290 -1 334 -23 l45 -23 20 23 c18 20 30 23 89 23 43 0 76
-5 88 -14 16 -11 21 -11 33 0 9 9 37 14 83 14 56 0 73 -4 90 -21 16 -16 23
-18 34 -9 20 16 94 39 130 39 17 1 48 -4 70 -10z"/>
<path d="M245 768 c-7 -20 -105 -582 -105 -601 0 -15 16 -17 134 -17 l134 0 6
31 c12 60 13 59 -80 59 -76 0 -85 2 -80 18 2 9 10 50 16 90 l12 72 68 0 c73 0
79 6 80 68 0 21 -4 22 -66 22 l-66 0 6 38 c4 20 11 60 17 89 l10 52 87 3 87 3
6 37 c3 21 4 40 1 43 -3 3 -63 5 -134 5 -94 0 -130 -3 -133 -12z"/>
<path d="M576 754 c-3 -16 -26 -146 -51 -289 -25 -143 -48 -272 -51 -288 l-6
-27 102 0 c109 0 150 11 187 51 32 35 40 62 73 247 54 301 45 321 -146 330
l-102 4 -6 -28z m172 -76 c17 -17 15 -40 -19 -231 -19 -105 -37 -179 -46 -189
-20 -22 -93 -25 -93 -4 0 17 69 407 75 424 6 15 67 16 83 0z"/>
<path d="M945 768 c-11 -35 -85 -488 -85 -520 0 -89 106 -136 202 -89 75 36
84 61 134 338 24 136 44 256 44 266 0 14 -9 17 -45 17 -25 0 -45 -1 -45 -2 0
-2 -20 -117 -45 -257 -46 -264 -55 -291 -100 -291 -51 0 -51 14 -6 273 23 133
41 250 41 260 0 14 -9 17 -45 17 -28 0 -47 -5 -50 -12z"/>
<path d="M1375 766 c-68 -30 -84 -70 -124 -298 -34 -192 -37 -234 -20 -272 14
-29 64 -56 106 -56 105 0 169 66 188 193 l7 47 -45 0 c-50 0 -50 0 -62 -78
-10 -62 -64 -94 -96 -56 -11 14 -8 46 19 208 18 105 40 201 48 214 12 18 23
22 47 20 32 -3 32 -3 33 -63 l1 -60 38 -3 c21 -2 42 1 47 6 5 5 12 34 15 65 7
68 -9 112 -48 132 -35 18 -114 19 -154 1z"/>
<path d="M1640 478 c-57 -167 -105 -309 -108 -316 -3 -10 7 -12 44 -10 l49 3
14 53 14 52 63 0 64 0 0 -55 0 -55 50 0 50 0 2 265 c1 146 2 286 3 313 l0 47
-71 3 -71 3 -103 -303z m145 17 l-7 -145 -44 0 c-24 0 -44 3 -44 6 0 17 93
294 98 290 2 -3 1 -71 -3 -151z"/>
<path d="M1996 718 c-6 -59 -36 -529 -36 -556 0 -8 21 -12 69 -12 l69 0 42
153 c23 83 44 154 47 157 3 3 3 -29 0 -70 -4 -41 -9 -112 -13 -158 l-6 -83 68
3 68 3 83 285 c110 380 104 342 52 338 l-43 -3 -65 -234 c-36 -129 -67 -229
-69 -223 -2 6 4 98 12 204 9 107 16 209 16 226 0 33 0 33 -47 30 l-46 -3 -61
-227 c-34 -124 -64 -229 -67 -233 -4 -3 -5 13 -3 37 10 116 24 330 24 376 l0
52 -44 0 -44 0 -6 -62z"/>
<path d="M2535 768 c-3 -7 -29 -149 -58 -315 l-53 -303 138 0 c110 0 138 3
138 14 0 7 3 28 6 45 l7 31 -87 0 c-47 0 -86 1 -86 3 0 1 7 40 15 87 8 47 15
86 15 88 0 1 31 2 69 2 l69 0 6 31 c11 59 11 59 -59 59 -73 0 -71 -3 -55 82
22 109 10 98 104 98 91 0 96 3 96 61 l0 29 -130 0 c-95 0 -132 -3 -135 -12z"/>
<path d="M2865 758 c-7 -31 -105 -594 -105 -603 0 -4 51 -5 114 -3 97 2 119 6
143 24 46 34 69 78 81 152 13 76 5 116 -25 139 -15 11 -14 15 11 38 37 35 57
86 59 156 1 48 -3 63 -19 80 -27 27 -81 38 -176 39 -72 0 -78 -2 -83 -22z
m163 -80 c26 -26 6 -130 -28 -148 -10 -6 -30 -10 -44 -10 -22 0 -26 5 -26 28
0 25 15 101 25 130 6 15 57 16 73 0z m-29 -267 c7 -12 7 -39 1 -77 -6 -33 -10
-60 -10 -61 0 -1 -7 -9 -16 -17 -22 -22 -94 -22 -94 1 0 19 19 142 25 161 7
20 83 15 94 -7z"/>
<path d="M380 604 c-14 -35 -15 -34 31 -34 22 0 49 -4 59 -10 15 -8 19 -5 23
23 2 17 3 35 0 40 -2 4 -27 7 -54 7 -44 0 -51 -3 -59 -26z"/>
<path d="M2666 608 c-9 -35 -9 -36 37 -40 23 -3 49 -8 58 -12 13 -6 17 0 21
29 2 19 2 38 -1 40 -2 3 -28 5 -57 5 -45 0 -52 -3 -58 -22z"/>
<path d="M1420 511 c0 -10 -3 -31 -6 -47 l-5 -29 80 0 c80 0 81 0 91 29 5 16
10 32 10 35 0 3 -27 4 -60 3 -44 -3 -68 1 -85 12 -24 16 -25 15 -25 -3z"/>
<path d="M388 362 c-49 -3 -58 -6 -58 -22 0 -10 -3 -25 -6 -34 -5 -14 3 -16
55 -16 56 0 61 2 67 24 11 45 3 51 -58 48z"/>
<path d="M2678 362 c-37 -2 -58 -7 -58 -15 0 -7 -3 -22 -6 -34 -6 -22 -4 -23
54 -23 l61 0 7 35 c3 20 5 37 3 38 -2 1 -30 1 -61 -1z"/>
</g>
</svg>
