<?xml version="1.0" standalone="no"?>
<!DOCTYPE svg PUBLIC "-//W3C//DTD SVG 20010904//EN"
 "http://www.w3.org/TR/2001/REC-SVG-20010904/DTD/svg10.dtd">
<svg version="1.0" xmlns="http://www.w3.org/2000/svg"
 width="329.000000pt" height="92.000000pt" viewBox="0 0 329.000000 92.000000"
 preserveAspectRatio="xMidYMid meet">

<g transform="translate(0.000000,92.000000) scale(0.100000,-0.100000)"
fill="#000000" stroke="none">
<path d="M1390 908 c-25 -6 -54 -10 -65 -8 -11 1 -110 1 -220 1 -110 0 -216 0
-235 0 -19 0 -172 2 -339 5 -330 5 -343 4 -385 -47 -28 -33 -27 -28 -96 -428
-51 -289 -51 -294 -35 -337 10 -28 28 -51 49 -64 32 -19 49 -20 334 -20 281 0
305 1 357 21 l55 21 48 -24 c66 -33 196 -32 264 1 l48 23 47 -23 c52 -26 70
-26 323 -16 74 3 144 5 155 5 11 0 307 -2 657 -4 618 -4 639 -4 690 16 64 24
133 88 160 147 25 57 49 194 42 246 -3 27 1 58 11 87 41 113 37 232 -11 301
-13 20 -48 49 -77 65 l-52 29 -710 0 c-707 0 -711 0 -739 -21 l-29 -21 -46 23
c-55 27 -139 37 -201 22z m167 -94 c41 -20 63 -50 78 -110 l11 -44 23 67 c34
101 37 103 148 103 78 0 96 -3 112 -19 18 -18 19 -18 35 0 13 15 30 19 84 19
42 0 75 -5 87 -14 16 -11 21 -11 33 0 19 20 145 19 162 -1 11 -13 15 -13 33 0
18 13 76 15 357 15 188 -1 351 -5 372 -11 54 -14 93 -52 108 -103 10 -38 10
-56 -4 -118 -9 -40 -25 -84 -35 -98 -15 -19 -17 -29 -9 -44 12 -23 5 -165 -12
-219 -16 -52 -85 -122 -135 -136 -25 -7 -148 -11 -322 -11 l-282 0 -20 26
c-12 15 -21 22 -21 16 0 -6 -7 -17 -15 -26 -13 -13 -58 -15 -305 -15 -323 0
-315 -1 -313 71 2 31 -1 39 -14 36 -9 -2 -21 -19 -26 -38 -15 -60 -31 -70
-112 -70 -51 0 -76 4 -84 14 -11 12 -18 12 -54 -5 -79 -35 -172 -21 -226 35
l-34 35 -38 -33 c-90 -76 -233 -72 -297 9 l-22 27 -35 -30 c-19 -17 -52 -36
-72 -41 -22 -6 -161 -11 -320 -11 l-283 0 -15 24 c-15 22 -13 39 19 217 19
107 45 255 57 329 16 92 29 140 41 152 16 16 43 18 292 17 150 0 288 -4 306
-9 18 -5 44 -19 56 -31 l23 -22 10 25 c5 14 17 28 26 32 32 12 140 6 162 -9
18 -13 22 -13 33 0 9 11 33 15 81 15 56 0 72 -4 88 -21 18 -20 20 -20 52 -3
72 37 148 40 216 8z"/>
<path d="M245 768 c-5 -18 -105 -593 -105 -607 0 -8 40 -11 135 -11 108 0 135
3 135 14 0 7 3 28 6 45 l7 31 -87 0 c-47 0 -86 1 -86 3 0 15 31 170 35 177 3
6 35 10 69 10 58 0 64 2 70 23 14 54 11 57 -59 57 -73 0 -70 -4 -54 86 18 101
10 94 104 94 90 0 95 3 95 61 l0 29 -130 0 c-96 0 -132 -3 -135 -12z"/>
<path d="M585 770 c-3 -6 -28 -137 -56 -293 -27 -155 -51 -293 -54 -305 l-6
-24 115 4 c130 3 154 14 192 84 23 41 84 356 84 432 0 55 -31 91 -90 103 -62
11 -178 11 -185 -1z m159 -86 c11 -4 16 -18 16 -43 0 -49 -56 -355 -70 -381
-8 -16 -21 -20 -57 -20 l-46 0 7 47 c3 26 20 127 38 225 l31 178 33 0 c18 0
39 -3 48 -6z"/>
<path d="M945 758 c-27 -124 -86 -500 -81 -528 11 -68 87 -104 172 -80 50 14
96 60 113 112 10 32 91 480 91 505 0 15 -76 18 -85 3 -3 -5 -25 -120 -49 -255
-46 -261 -56 -289 -104 -283 -48 6 -48 21 -4 280 24 133 42 249 42 256 0 8
-16 12 -45 12 -38 0 -45 -3 -50 -22z"/>
<path d="M1368 760 c-61 -33 -76 -71 -114 -283 -19 -105 -34 -209 -34 -230 0
-109 169 -143 250 -51 28 33 41 67 56 147 l6 37 -46 0 c-25 0 -46 -2 -46 -4 0
-2 -5 -27 -10 -56 -15 -77 -44 -103 -94 -84 -23 9 -20 52 17 253 29 159 34
176 59 194 26 19 28 19 53 3 24 -16 25 -21 19 -66 l-7 -50 46 0 45 0 7 55 c8
71 -7 121 -45 140 -40 21 -117 18 -162 -5z"/>
<path d="M1743 768 c-6 -7 -56 -149 -111 -315 l-100 -303 43 0 44 0 17 55 18
55 63 0 63 0 0 -55 0 -55 50 0 50 0 0 315 0 315 -64 0 c-39 0 -67 -5 -73 -12z
m42 -345 l-7 -73 -44 0 c-24 0 -44 4 -44 9 0 5 21 74 48 153 l47 143 3 -80 c2
-44 0 -113 -3 -152z"/>
<path d="M2006 771 c-4 -6 -45 -562 -46 -618 0 -2 31 -3 68 -3 l69 0 46 163
47 162 -5 -110 c-3 -60 -8 -134 -11 -163 l-6 -53 67 3 67 3 89 305 c48 168 84
309 80 313 -5 5 -23 7 -42 5 l-33 -3 -65 -240 c-36 -131 -67 -231 -69 -221 -2
10 4 115 13 232 9 117 14 218 10 224 -3 5 -24 10 -45 10 -44 0 -34 23 -110
-260 -48 -181 -61 -223 -66 -218 -2 3 3 92 11 199 8 107 15 213 15 237 l0 42
-39 0 c-22 0 -42 -4 -45 -9z"/>
<path d="M2535 768 c-6 -19 -105 -586 -105 -603 0 -13 23 -15 135 -15 133 0
135 0 135 23 0 12 3 32 6 45 6 22 5 22 -80 22 l-87 0 7 47 c4 27 12 68 18 93
l11 45 66 3 c66 3 67 3 73 34 3 17 6 34 6 39 0 5 -29 9 -65 9 -74 0 -71 -7
-52 105 l12 70 87 3 c93 3 97 6 98 70 0 22 -2 22 -130 22 -96 0 -132 -3 -135
-12z"/>
<path d="M2870 758 c-5 -13 -30 -144 -55 -293 -26 -148 -49 -280 -52 -292 -5
-23 -4 -23 96 -23 115 0 154 12 193 58 49 58 65 215 27 253 l-21 21 30 31 c37
40 52 85 52 152 0 91 -39 113 -198 114 -56 1 -63 -1 -72 -21z m159 -77 c10 -6
12 -24 9 -67 -6 -67 -30 -94 -85 -94 -28 0 -33 3 -29 18 3 9 10 47 17 85 11
66 11 67 43 67 17 0 37 -4 45 -9z m-29 -272 c13 -23 5 -85 -16 -136 -12 -31
-16 -33 -62 -33 l-49 0 14 83 c18 110 17 107 62 107 31 0 43 -5 51 -21z"/>
<path d="M376 608 c-9 -36 -8 -38 30 -38 19 0 44 -5 56 -11 24 -13 25 -13 33
34 l7 37 -60 0 c-53 0 -60 -2 -66 -22z"/>
<path d="M2666 614 c-13 -33 -6 -42 37 -46 23 -3 49 -8 58 -12 13 -6 18 0 22
26 2 18 3 36 0 41 -2 4 -28 7 -58 7 -39 0 -54 -4 -59 -16z"/>
<path d="M1416 499 c-13 -65 -13 -64 74 -64 79 0 80 0 90 29 5 16 10 33 10 37
0 5 -33 9 -73 9 -40 0 -78 5 -84 11 -7 7 -12 1 -17 -22z"/>
<path d="M337 363 c-3 -5 -8 -23 -12 -40 l-7 -33 60 0 c64 0 72 6 72 56 0 22
-4 24 -54 24 -30 0 -57 -3 -59 -7z"/>
<path d="M2627 363 c-3 -5 -8 -23 -12 -40 l-7 -33 60 0 c64 0 72 6 72 56 0 22
-4 24 -54 24 -30 0 -57 -3 -59 -7z"/>
</g>
</svg>
