<?xml version="1.0" standalone="no"?>
<!DOCTYPE svg PUBLIC "-//W3C//DTD SVG 20010904//EN"
 "http://www.w3.org/TR/2001/REC-SVG-20010904/DTD/svg10.dtd">
<svg version="1.0" xmlns="http://www.w3.org/2000/svg"
 width="258.000000pt" height="91.000000pt" viewBox="0 0 258.000000 91.000000"
 preserveAspectRatio="xMidYMid meet">

<g transform="translate(0.000000,91.000000) scale(0.100000,-0.100000)"
fill="#000000" stroke="none">
<path d="M183 891 c-47 -29 -61 -57 -78 -157 -28 -154 -52 -294 -80 -451 -27
-150 -27 -153 -8 -190 10 -20 31 -46 46 -57 27 -20 41 -21 340 -21 301 0 314
1 360 22 l47 22 37 -21 c54 -32 189 -37 260 -10 52 20 53 20 89 1 34 -17 68
-18 568 -16 l531 2 57 28 c117 57 168 155 174 330 3 69 10 121 20 145 9 20 18
74 21 119 7 102 -11 156 -67 207 -75 68 -61 67 -876 61 -863 -5 -721 -5 -1099
1 -296 4 -311 4 -342 -15z m660 -85 l47 -23 15 23 c14 22 23 24 93 24 43 0 83
-5 89 -11 8 -8 17 -8 31 0 28 15 294 15 309 0 8 -8 17 -8 31 0 27 14 137 14
164 0 14 -8 23 -8 31 0 18 18 708 15 750 -3 45 -18 84 -67 92 -114 7 -45 -16
-160 -41 -197 -14 -21 -14 -31 -4 -72 10 -40 10 -61 -4 -128 -19 -96 -53 -150
-116 -185 -45 -25 -46 -25 -342 -28 l-296 -3 -18 24 -19 24 -18 -23 c-17 -23
-21 -23 -212 -23 -223 0 -225 1 -225 76 l0 46 -30 -41 c-74 -102 -234 -120
-318 -36 -35 35 -35 35 -56 16 -60 -55 -70 -57 -387 -60 -287 -3 -296 -2 -314
18 -16 18 -17 27 -7 83 6 34 32 184 58 332 29 164 53 277 62 288 14 15 41 17
302 17 281 0 287 0 333 -24z"/>
<path d="M192 482 c-29 -164 -52 -305 -52 -315 0 -15 14 -17 129 -17 72 0 132
3 135 8 2 4 7 24 11 44 l7 37 -83 3 c-96 3 -89 -8 -69 116 l12 72 68 0 c73 0
79 6 80 68 0 21 -4 22 -65 22 -36 0 -65 4 -65 10 0 8 12 73 26 138 4 21 9 22
89 22 84 0 85 0 90 28 15 68 27 62 -124 62 l-137 0 -52 -298z"/>
<path d="M575 758 c-7 -34 -105 -593 -105 -603 0 -4 49 -6 109 -3 129 6 168
24 200 91 21 45 81 359 81 427 0 88 -37 110 -179 110 -96 0 -101 -1 -106 -22z
m182 -85 c10 -25 -52 -383 -71 -408 -6 -9 -31 -19 -55 -22 l-44 -6 6 48 c4 27
21 129 39 227 l31 178 44 0 c32 0 45 -5 50 -17z"/>
<path d="M945 768 c-10 -27 -85 -475 -85 -506 0 -73 44 -112 126 -112 82 0
142 45 165 123 9 31 89 478 89 497 0 6 -20 10 -45 10 -38 0 -45 -3 -50 -22 -2
-13 -20 -115 -40 -228 -45 -261 -49 -278 -80 -286 -37 -9 -60 -1 -63 23 -2 12
15 126 37 252 23 126 41 236 41 245 0 12 -10 16 -45 16 -27 0 -47 -5 -50 -12z"/>
<path d="M1286 708 c-7 -73 -36 -522 -36 -545 0 -9 20 -13 65 -13 77 0 69 -13
120 175 20 71 39 132 42 135 5 5 2 -57 -13 -238 l-6 -73 67 3 67 3 89 305 c49
168 89 308 89 313 0 4 -18 7 -40 7 -49 0 -40 20 -116 -259 -32 -117 -60 -209
-62 -203 -2 6 4 98 12 204 9 107 16 209 16 226 l0 33 -47 -3 -47 -3 -59 -220
c-32 -121 -62 -223 -66 -227 -4 -4 -1 70 5 165 7 94 14 197 15 227 l3 55 -46
3 -46 3 -6 -73z"/>
<path d="M1790 593 c-18 -104 -42 -243 -54 -310 -13 -68 -20 -125 -18 -128 8
-8 260 -6 265 3 2 4 7 24 11 45 l7 37 -86 0 c-47 0 -85 3 -85 6 0 3 7 46 16
95 l17 89 67 0 c73 0 79 6 80 68 0 21 -4 22 -65 22 -46 0 -65 4 -64 13 0 6 6
44 12 82 l12 70 87 3 c93 3 97 6 98 70 0 22 -2 22 -133 22 l-134 0 -33 -187z"/>
<path d="M2156 768 c-6 -17 -106 -600 -106 -612 0 -5 48 -7 109 -4 90 5 116
10 146 28 43 27 69 75 83 157 12 70 8 99 -21 130 l-20 23 25 20 c34 26 59 91
59 155 1 65 -11 90 -52 104 -45 16 -219 15 -223 -1z m168 -141 c-2 -73 -23
-100 -75 -95 l-34 3 14 78 13 78 42 -3 41 -3 -1 -58z m-44 -207 c13 -13 19
-29 16 -43 -3 -12 -8 -39 -11 -60 -8 -50 -36 -77 -80 -77 -30 0 -35 3 -35 23
0 24 17 129 26 160 7 24 59 22 84 -3z"/>
<path d="M376 608 c-9 -37 -8 -38 35 -38 22 0 49 -5 60 -10 16 -9 19 -7 19 14
0 13 3 31 6 40 5 14 -3 16 -54 16 -53 0 -60 -2 -66 -22z"/>
<path d="M1956 604 c-4 -15 -6 -27 -4 -29 2 -1 29 -5 61 -8 51 -5 57 -4 57 13
0 10 3 25 6 34 5 14 -3 16 -54 16 -56 0 -60 -2 -66 -26z"/>
<path d="M379 363 c-42 -4 -47 -7 -52 -31 -7 -38 -2 -42 57 -42 47 0 54 3 60
23 9 36 7 57 -6 55 -7 -1 -34 -3 -59 -5z"/>
<path d="M1959 363 c-42 -4 -47 -7 -52 -31 -7 -38 -2 -42 57 -42 47 0 54 3 60
23 9 36 7 57 -6 55 -7 -1 -34 -3 -59 -5z"/>
</g>
</svg>
