<?xml version="1.0" standalone="no"?>
<!DOCTYPE svg PUBLIC "-//W3C//DTD SVG 20010904//EN"
 "http://www.w3.org/TR/2001/REC-SVG-20010904/DTD/svg10.dtd">
<svg version="1.0" xmlns="http://www.w3.org/2000/svg"
 width="329.000000pt" height="92.000000pt" viewBox="0 0 329.000000 92.000000"
 preserveAspectRatio="xMidYMid meet">

<g transform="translate(0.000000,92.000000) scale(0.100000,-0.100000)"
fill="#000000" stroke="none">
<path d="M1390 908 c-25 -6 -54 -10 -65 -8 -11 1 -110 1 -220 1 -110 0 -216 0
-235 0 -19 0 -172 2 -339 5 -330 5 -343 4 -385 -47 -28 -33 -27 -28 -96 -428
-51 -289 -51 -294 -35 -337 10 -28 28 -51 49 -64 32 -19 49 -20 334 -20 281 0
305 1 357 21 l55 21 48 -24 c66 -33 196 -32 264 1 l48 23 47 -23 c52 -26 70
-26 323 -16 74 3 144 5 155 5 11 0 307 -2 657 -4 618 -4 639 -4 690 16 64 24
133 88 160 147 25 57 49 194 42 246 -3 27 1 58 11 87 41 113 37 232 -11 301
-13 20 -48 49 -77 65 l-52 29 -710 0 c-707 0 -711 0 -739 -21 l-29 -21 -46 23
c-55 27 -139 37 -201 22z m167 -94 c41 -20 63 -50 78 -110 l11 -44 23 67 c34
101 37 103 148 103 78 0 96 -3 112 -19 18 -18 19 -18 35 0 13 15 30 19 84 19
42 0 75 -5 87 -14 16 -11 21 -11 33 0 19 20 145 19 162 -1 11 -13 15 -13 33 0
18 13 76 15 357 15 188 -1 351 -5 372 -11 54 -14 93 -52 108 -103 10 -38 10
-56 -4 -118 -9 -40 -25 -84 -35 -98 -15 -19 -17 -29 -9 -44 12 -23 5 -165 -12
-219 -16 -52 -85 -122 -135 -136 -25 -7 -148 -11 -322 -11 l-282 0 -20 26
c-12 15 -21 22 -21 16 0 -6 -7 -17 -15 -26 -13 -13 -58 -15 -305 -15 -323 0
-315 -1 -313 71 2 31 -1 39 -14 36 -9 -2 -21 -19 -26 -38 -15 -60 -31 -70
-112 -70 -51 0 -76 4 -84 14 -11 12 -18 12 -54 -5 -79 -35 -172 -21 -226 35
l-34 35 -38 -33 c-90 -76 -233 -72 -297 9 l-22 27 -35 -30 c-19 -17 -52 -36
-72 -41 -22 -6 -161 -11 -320 -11 l-283 0 -15 24 c-15 22 -13 39 19 217 19
107 45 255 57 329 16 92 29 140 41 152 16 16 43 18 292 17 150 0 288 -4 306
-9 18 -5 44 -19 56 -31 l23 -22 10 25 c5 14 17 28 26 32 32 12 140 6 162 -9
18 -13 22 -13 33 0 9 11 33 15 81 15 56 0 72 -4 88 -21 18 -20 20 -20 52 -3
72 37 148 40 216 8z"/>
<path d="M1371 758 c-30 -15 -51 -36 -64 -61 -25 -49 -90 -409 -83 -462 9 -70
81 -108 165 -85 78 21 116 75 136 193 l6 37 -44 0 -44 0 -12 -59 c-13 -67 -36
-94 -78 -89 -23 2 -29 8 -31 34 -3 29 51 365 64 398 5 13 46 36 64 36 5 0 16
-7 25 -16 13 -13 15 -27 10 -65 l-7 -49 45 0 44 0 7 58 c11 99 -20 143 -107
149 -40 3 -62 -1 -96 -19z"/>
<path d="M245 758 c-4 -13 -105 -589 -105 -601 0 -4 61 -7 135 -7 l135 0 0 24
c0 13 3 31 6 40 5 13 -7 16 -78 18 l-83 3 3 46 c1 25 8 67 15 95 l12 49 66 3
c59 3 68 5 73 25 14 53 11 57 -59 57 -74 0 -71 -7 -52 105 l12 70 87 3 c79 3
86 5 92 25 15 58 17 57 -124 57 -96 0 -132 -3 -135 -12z"/>
<path d="M580 766 c0 -7 -100 -578 -104 -600 -4 -17 2 -18 109 -15 179 6 196
28 244 305 39 228 39 247 2 285 -29 29 -31 29 -140 29 -61 0 -111 -2 -111 -4z
m169 -85 c19 -12 17 -40 -14 -222 -33 -196 -41 -215 -94 -224 -22 -4 -44 -4
-49 -1 -5 3 1 64 14 138 13 73 31 175 40 226 l16 92 37 0 c20 0 42 -4 50 -9z"/>
<path d="M946 753 c-19 -65 -87 -506 -82 -528 32 -128 248 -96 285 43 9 33 91
482 91 498 0 2 -20 4 -45 4 -25 0 -45 -3 -45 -6 0 -25 -83 -475 -91 -496 -13
-31 -39 -43 -75 -34 -32 9 -32 20 16 292 22 125 40 231 40 236 0 4 -20 8 -44
8 -34 0 -46 -4 -50 -17z"/>
<path d="M1730 738 c-6 -18 -54 -158 -105 -310 l-94 -278 44 0 43 0 20 58 19
57 59 0 59 0 3 -57 3 -58 49 0 50 0 0 310 0 310 -69 0 c-69 0 -69 0 -81 -32z
m55 -355 c-6 -32 -8 -33 -55 -33 l-48 0 51 156 52 155 3 -123 c2 -68 0 -138
-3 -155z"/>
<path d="M2000 754 c0 -25 -29 -472 -35 -542 l-6 -62 68 0 68 0 44 160 c24 88
46 160 49 160 6 0 -6 -241 -15 -287 l-5 -33 66 0 65 0 17 57 c9 32 50 171 89
308 l73 250 -35 3 c-20 2 -39 0 -43 -5 -4 -4 -36 -109 -70 -233 -34 -124 -65
-228 -69 -232 -6 -7 6 183 24 395 l7 78 -47 -3 -48 -3 -63 -234 c-34 -128 -65
-236 -68 -239 -8 -7 -8 -6 9 223 21 280 24 255 -30 255 -35 0 -45 -4 -45 -16z"/>
<path d="M2482 468 c-29 -167 -52 -306 -52 -310 0 -5 59 -8 130 -8 139 0 137
-1 142 54 l3 28 -80 2 -80 1 2 43 c1 24 7 68 13 98 l11 54 68 0 69 0 6 31 c3
17 6 35 6 40 0 5 -29 9 -65 9 -75 0 -73 -4 -52 110 l12 65 86 3 87 3 6 31 c3
17 6 34 6 39 0 5 -60 9 -133 9 l-132 0 -53 -302z"/>
<path d="M2866 743 c-3 -15 -26 -145 -51 -288 -25 -143 -48 -270 -50 -282 -5
-23 -4 -23 87 -23 51 0 110 5 130 10 72 20 118 109 118 229 0 37 -5 52 -24 70
l-23 22 32 32 c55 55 74 181 36 228 -18 22 -27 24 -134 27 l-115 4 -6 -29z
m168 -69 c10 -9 14 -25 11 -40 -3 -13 -8 -36 -11 -51 -9 -44 -32 -63 -76 -63
-21 0 -38 1 -38 3 0 1 7 37 15 80 8 43 15 81 15 83 0 12 71 2 84 -12z m-34
-259 c10 -12 10 -30 2 -81 -6 -36 -16 -72 -22 -79 -14 -16 -89 -30 -100 -19
-4 5 -1 51 8 102 l16 92 42 0 c25 0 47 -6 54 -15z"/>
<path d="M376 608 c-9 -36 -8 -38 30 -38 19 0 44 -5 56 -11 24 -13 25 -13 33
34 l7 37 -60 0 c-53 0 -60 -2 -66 -22z"/>
<path d="M2666 614 c-13 -33 -6 -42 37 -46 23 -3 49 -8 58 -12 13 -6 18 0 22
26 2 18 3 36 0 41 -2 4 -28 7 -58 7 -39 0 -54 -4 -59 -16z"/>
<path d="M1416 499 c-13 -65 -13 -64 74 -64 79 0 80 0 90 29 5 16 10 33 10 37
0 5 -33 9 -73 9 -40 0 -78 5 -84 11 -7 7 -12 1 -17 -22z"/>
<path d="M337 363 c-3 -5 -8 -23 -12 -40 l-7 -33 60 0 c64 0 72 6 72 56 0 22
-4 24 -54 24 -30 0 -57 -3 -59 -7z"/>
<path d="M2627 363 c-3 -5 -8 -23 -12 -40 l-7 -33 60 0 c64 0 72 6 72 56 0 22
-4 24 -54 24 -30 0 -57 -3 -59 -7z"/>
</g>
</svg>
