<?xml version="1.0" standalone="no"?>
<!DOCTYPE svg PUBLIC "-//W3C//DTD SVG 20010904//EN"
 "http://www.w3.org/TR/2001/REC-SVG-20010904/DTD/svg10.dtd">
<svg version="1.0" xmlns="http://www.w3.org/2000/svg"
 width="293.000000pt" height="63.000000pt" viewBox="0 0 293.000000 63.000000"
 preserveAspectRatio="xMidYMid meet">

<g transform="translate(0.000000,63.000000) scale(0.100000,-0.100000)"
fill="#000000" stroke="none">
<path d="M1195 606 c-37 -17 -70 -52 -84 -90 -16 -41 -71 -358 -71 -409 0 -53
20 -82 66 -97 39 -13 120 -8 153 10 38 20 70 75 85 143 l14 67 -54 0 c-51 0
-54 -2 -59 -27 -16 -81 -30 -108 -57 -111 -19 -2 -28 2 -33 17 -8 25 53 369
70 397 8 12 23 24 34 27 26 6 36 -26 27 -83 l-6 -40 54 0 c52 0 54 1 60 31 9
48 7 108 -5 131 -23 43 -131 62 -194 34z"/>
<path d="M110 605 c0 -2 -22 -132 -50 -287 -27 -155 -50 -288 -50 -295 0 -11
29 -13 137 -11 l137 3 7 35 c10 46 -1 52 -83 47 -78 -5 -75 -11 -56 103 l12
70 68 0 c58 0 68 3 68 18 0 9 3 27 6 40 6 21 4 22 -60 22 -36 0 -66 1 -66 3 0
1 7 40 15 87 8 47 15 86 15 88 0 1 38 2 85 2 74 0 85 2 85 18 0 9 3 27 6 40
l6 22 -141 0 c-77 0 -141 -2 -141 -5z"/>
<path d="M430 608 c0 -2 -23 -129 -50 -283 -27 -154 -50 -288 -50 -297 0 -16
11 -18 100 -18 110 0 150 11 189 53 29 32 40 74 77 288 32 190 28 220 -32 245
-28 12 -234 22 -234 12z m148 -84 c18 -5 22 -13 22 -43 0 -62 -57 -352 -71
-366 -21 -20 -75 -24 -72 -5 1 8 14 83 28 165 47 277 42 262 93 249z"/>
<path d="M771 558 c-35 -178 -71 -404 -71 -448 0 -61 27 -95 84 -105 91 -17
170 20 199 93 12 30 97 474 97 506 0 3 -24 6 -53 6 l-53 0 -43 -242 c-27 -157
-48 -249 -58 -260 -20 -22 -52 -23 -60 -2 -3 9 13 122 36 252 23 131 41 240
41 245 0 4 -24 7 -54 7 l-55 0 -10 -52z"/>
<path d="M1434 310 l-101 -300 53 0 53 0 17 55 18 55 48 0 48 0 0 -55 0 -55
54 0 53 0 7 37 c3 21 6 156 6 301 l0 262 -77 0 -78 0 -101 -300z m162 111 c-3
-20 -10 -75 -14 -123 -5 -48 -11 -90 -14 -94 -3 -3 -20 -4 -36 -2 l-31 3 47
144 c43 133 63 162 48 72z"/>
<path d="M1780 594 c0 -32 -30 -501 -35 -542 l-5 -43 77 3 76 3 41 145 c35
123 41 139 44 106 2 -22 -3 -69 -12 -105 -8 -36 -17 -85 -19 -108 l-5 -43 73
0 74 0 16 57 c23 81 145 504 151 526 5 15 -2 17 -45 17 -47 0 -50 -2 -60 -32
-25 -81 -60 -228 -65 -278 -3 -30 -13 -75 -20 -100 l-15 -45 0 40 c0 22 6 117
14 210 8 94 15 178 15 188 0 14 -9 17 -54 17 -43 0 -56 -4 -60 -17 -23 -76
-66 -260 -66 -284 0 -32 -30 -162 -36 -156 -2 2 3 96 11 208 20 279 25 249
-40 249 -43 0 -55 -3 -55 -16z"/>
<path d="M2290 605 c0 -2 -22 -130 -50 -284 -27 -154 -50 -287 -50 -296 0 -14
17 -15 137 -13 l138 3 6 38 c5 33 3 38 -18 43 -13 4 -48 4 -78 2 -64 -5 -62
-9 -44 103 l12 69 68 0 c66 0 69 1 69 24 0 13 3 31 6 40 5 14 -4 16 -60 16
-36 0 -66 3 -66 8 0 4 7 42 15 85 8 43 15 81 15 83 0 2 38 4 85 4 83 0 85 1
85 24 0 13 3 31 6 40 5 14 -10 16 -135 16 -78 0 -141 -2 -141 -5z"/>
<path d="M2610 608 c0 -1 -24 -137 -53 -301 l-53 -297 105 0 c174 0 227 43
238 196 5 67 4 77 -16 98 l-22 23 30 30 c33 34 51 87 51 154 0 36 -5 51 -26
70 -23 22 -35 24 -140 27 -63 2 -114 2 -114 0z m159 -94 c9 -8 1 -87 -11 -112
-12 -23 -63 -51 -74 -40 -2 3 1 31 6 64 19 110 18 107 48 99 15 -4 29 -8 31
-11z m-39 -249 c17 -20 4 -118 -18 -144 -17 -21 -64 -32 -71 -18 -2 4 2 46 9
92 13 83 14 85 40 85 15 0 33 -7 40 -15z"/>
</g>
</svg>
