<?xml version="1.0" standalone="no"?>
<!DOCTYPE svg PUBLIC "-//W3C//DTD SVG 20010904//EN"
 "http://www.w3.org/TR/2001/REC-SVG-20010904/DTD/svg10.dtd">
<svg version="1.0" xmlns="http://www.w3.org/2000/svg"
 width="293.000000pt" height="63.000000pt" viewBox="0 0 293.000000 63.000000"
 preserveAspectRatio="xMidYMid meet">

<g transform="translate(0.000000,63.000000) scale(0.100000,-0.100000)"
fill="#000000" stroke="none">
<path d="M1195 606 c-37 -17 -70 -52 -84 -90 -16 -40 -71 -358 -71 -406 0 -23
5 -50 11 -62 22 -41 122 -61 186 -37 63 23 93 70 112 171 l8 48 -53 0 c-51 0
-54 -2 -59 -27 -16 -80 -30 -108 -56 -111 -18 -2 -29 3 -33 15 -9 23 52 372
71 401 9 15 22 22 36 20 20 -3 22 -9 21 -60 l-1 -58 52 0 c51 0 53 1 59 31 9
47 7 108 -4 130 -25 45 -129 64 -195 35z"/>
<path d="M110 605 c0 -2 -22 -132 -50 -287 -27 -155 -50 -288 -50 -295 0 -10
33 -13 139 -13 l139 0 4 38 c3 21 0 40 -6 44 -6 4 -41 8 -78 8 -78 0 -75 -5
-55 100 l12 65 66 3 67 3 5 37 c8 46 -4 54 -66 49 -26 -2 -49 -1 -51 2 -3 3 2
42 10 86 l15 80 79 0 c43 0 80 2 83 5 2 3 7 22 11 43 l7 37 -141 0 c-77 0
-140 -2 -140 -5z"/>
<path d="M430 608 c0 -2 -23 -129 -50 -283 -27 -154 -50 -288 -50 -297 0 -16
11 -18 99 -18 110 0 143 8 184 48 35 33 47 76 82 288 26 150 27 174 16 203
-21 49 -54 61 -176 61 -58 0 -105 -1 -105 -2z m158 -88 c7 0 12 -14 12 -37 0
-59 -56 -351 -70 -368 -18 -22 -70 -20 -70 3 0 9 16 105 35 212 19 107 35 197
35 199 0 2 10 1 23 -3 12 -3 28 -6 35 -6z"/>
<path d="M771 558 c-35 -178 -71 -404 -71 -448 0 -40 5 -56 24 -75 42 -42 152
-46 205 -7 51 37 67 87 110 332 23 129 41 239 41 243 0 4 -24 7 -53 7 l-53 0
-43 -242 c-27 -157 -48 -249 -58 -260 -21 -24 -50 -23 -58 2 -3 10 12 122 34
248 23 126 41 234 41 241 0 7 -20 11 -54 11 l-55 0 -10 -52z"/>
<path d="M1434 310 l-101 -300 53 0 53 0 17 55 18 55 48 0 48 0 0 -55 0 -55
60 0 60 0 0 300 0 300 -77 0 -78 0 -101 -300z m162 111 c-3 -20 -10 -75 -14
-123 -5 -48 -11 -90 -14 -94 -3 -3 -19 -4 -35 -2 l-29 3 45 145 c42 132 62
163 47 71z"/>
<path d="M1780 594 c0 -32 -30 -501 -35 -542 l-5 -43 78 3 77 3 40 145 c31
111 41 137 43 111 2 -18 -3 -66 -11 -105 -9 -39 -18 -90 -20 -113 l-5 -43 73
0 c61 0 75 3 79 18 3 9 39 136 81 282 42 146 78 273 81 283 5 15 -2 17 -45 17
l-50 0 -15 -52 c-42 -148 -56 -205 -56 -233 0 -16 -9 -61 -19 -100 -25 -90
-26 -59 -6 170 21 238 25 215 -39 215 -43 0 -56 -4 -60 -17 -24 -78 -66 -260
-66 -286 0 -18 -9 -61 -20 -97 l-20 -65 5 65 c13 170 25 348 25 373 0 26 -2
27 -55 27 -43 0 -55 -3 -55 -16z"/>
<path d="M2290 605 c0 -2 -22 -130 -50 -284 -27 -154 -50 -287 -50 -296 0 -14
17 -15 137 -13 l137 3 7 35 c9 45 1 50 -83 50 -77 0 -74 -6 -56 100 l12 70 67
0 66 0 6 37 c8 47 -3 55 -70 49 -29 -2 -53 -4 -53 -3 0 1 30 172 30 172 0 0
36 0 79 0 44 0 81 2 84 5 2 3 7 22 11 43 l7 37 -141 0 c-77 0 -140 -2 -140 -5z"/>
<path d="M2610 608 c0 -1 -24 -137 -53 -301 l-53 -297 105 0 c178 1 227 41
238 197 5 66 4 76 -16 97 l-22 23 30 30 c33 34 51 87 51 154 0 36 -5 51 -26
70 -23 22 -35 24 -140 27 -63 2 -114 2 -114 0z m159 -94 c8 -7 1 -81 -9 -108
-10 -26 -54 -51 -71 -40 -5 3 -7 15 -4 27 2 12 9 48 15 80 11 57 13 58 38 52
15 -4 29 -8 31 -11z m-39 -249 c9 -10 10 -31 6 -68 -10 -71 -28 -97 -70 -97
l-33 0 14 78 c8 42 16 83 18 90 6 17 50 15 65 -3z"/>
</g>
</svg>
